<svg xmlns="http://www.w3.org/2000/svg" viewBox="0 0 1200 800">
    <!-- Background -->
    <rect width="1200" height="800" fill="#f8fafc" />
    
    <!-- Top Navigation Bar -->
    <rect x="0" y="0" width="1200" height="60" fill="#ffffff" filter="url(#shadow)" />
    <text x="40" y="38" font-family="Arial" font-size="24" fill="#1a1a1a">Catalyst Review Tool</text>
    
    <!-- Navigation Icons -->
    <circle cx="1100" cy="30" r="20" fill="#e2e8f0" />
    <circle cx="1150" cy="30" r="20" fill="#e2e8f0" />
    
    <!-- Guidelines Banner -->
    <rect x="40" y="80" width="1120" height="60" rx="8" fill="#eef2ff" />
    <text x="70" y="118" font-family="Arial" font-size="16" fill="#4338ca">📖 Review Rules and Best Practices</text>
    <text x="900" y="118" font-family="Arial" font-size="16" fill="#4338ca">View Guidelines →</text>
    
    <!-- Quick Stats Grid -->
    <g transform="translate(40, 160)">
        <!-- Stats Card 1 -->
        <rect width="260" height="100" rx="8" fill="#ffffff" filter="url(#shadow)" />
        <text x="20" y="35" font-family="Arial" font-size="14" fill="#64748b">Reviews Completed</text>
        <text x="20" y="70" font-family="Arial" font-size="24" font-weight="bold" fill="#1a1a1a">12</text>
        
        <!-- Stats Card 2 -->
        <rect x="280" width="260" height="100" rx="8" fill="#ffffff" filter="url(#shadow)" />
        <text x="300" y="35" font-family="Arial" font-size="14" fill="#64748b">Pending Reviews</text>
        <text x="300" y="70" font-family="Arial" font-size="24" font-weight="bold" fill="#1a1a1a">5</text>
        
        <!-- Stats Card 3 -->
        <rect x="560" width="260" height="100" rx="8" fill="#ffffff" filter="url(#shadow)" />
        <text x="580" y="35" font-family="Arial" font-size="14" fill="#64748b">ADA Earned</text>
        <text x="580" y="70" font-family="Arial" font-size="24" font-weight="bold" fill="#1a1a1a">₳45.00</text>
        
        <!-- Stats Card 4 -->
        <rect x="840" width="260" height="100" rx="8" fill="#ffffff" filter="url(#shadow)" />
        <text x="860" y="35" font-family="Arial" font-size="14" fill="#64748b">Reviewer Score</text>
        <text x="860" y="70" font-family="Arial" font-size="24" font-weight="bold" fill="#1a1a1a">4.8/5.0</text>
    </g>
    
    <!-- Main Content Grid -->
    <g transform="translate(40, 280)">
        <!-- Pending Tasks Card -->
        <rect width="740" height="240" rx="8" fill="#ffffff" filter="url(#shadow)" />
        <text x="20" y="40" font-family="Arial" font-size="18" font-weight="bold" fill="#1a1a1a">Pending Tasks</text>
        
        <!-- Task Items -->
        <g transform="translate(20, 60)">
            <!-- Task 1 -->
            <rect width="700" height="70" rx="8" fill="#f8fafc" />
            <text x="20" y="30" font-family="Arial" font-size="16" fill="#1a1a1a">Review: DeFi Integration Proposal</text>
            <text x="20" y="50" font-family="Arial" font-size="14" fill="#64748b">Due in 2 days</text>
            <rect x="600" y="20" width="80" height="30" rx="15" fill="#eef2ff" />
            <text x="620" y="40" font-family="Arial" font-size="14" fill="#4338ca">Start →</text>
            
            <!-- Task 2 -->
            <g transform="translate(0, 80)">
                <rect width="700" height="70" rx="8" fill="#f8fafc" />
                <text x="20" y="30" font-family="Arial" font-size="16" fill="#1a1a1a">Peer Review: Smart Contract Implementation</text>
                <text x="20" y="50" font-family="Arial" font-size="14" fill="#64748b">Due in 3 days</text>
                <rect x="600" y="20" width="80" height="30" rx="15" fill="#eef2ff" />
                <text x="620" y="40" font-family="Arial" font-size="14" fill="#4338ca">Start →</text>
            </g>
        </g>
        
        <!-- Leaderboard Card -->
        <g transform="translate(760, 0)">
            <rect width="360" height="240" rx="8" fill="#ffffff" filter="url(#shadow)" />
            <text x="20" y="40" font-family="Arial" font-size="18" font-weight="bold" fill="#1a1a1a">Top Reviewers</text>
            
            <!-- Leaderboard Items -->
            <g transform="translate(20, 60)">
                <!-- Leader 1 -->
                <rect width="320" height="50" rx="8" fill="#f8fafc" />
                <circle cx="25" cy="25" r="15" fill="#4338ca" />
                <text x="50" y="32" font-family="Arial" font-size="16" fill="#1a1a1a">Alex M.</text>
                <text x="250" y="32" font-family="Arial" font-size="16" fill="#64748b">95 pts</text>
                
                <!-- Leader 2 -->
                <g transform="translate(0, 60)">
                    <rect width="320" height="50" rx="8" fill="#f8fafc" />
                    <circle cx="25" cy="25" r="15" fill="#6366f1" />
                    <text x="50" y="32" font-family="Arial" font-size="16" fill="#1a1a1a">Sarah K.</text>
                    <text x="250" y="32" font-family="Arial" font-size="16" fill="#64748b">87 pts</text>
                </g>
            </g>
        </g>
    </g>
    
    <!-- Progress Section -->
    <g transform="translate(40, 540)">
        <rect width="1120" height="120" rx="8" fill="#ffffff" filter="url(#shadow)" />
        <text x="20" y="40" font-family="Arial" font-size="18" font-weight="bold" fill="#1a1a1a">Current Progress</text>
        
        <!-- Progress Bar -->
        <rect x="20" y="60" width="1080" height="20" rx="10" fill="#e2e8f0" />
        <rect x="20" y="60" width="540" height="20" rx="10" fill="#4338ca" />
        <text x="20" y="100" font-family="Arial" font-size="14" fill="#64748b">50% complete to next level</text>
    </g>

    <!-- Filters -->
    <defs>
        <filter id="shadow" x="-5" y="-5" width="110%" height="110%">
            <feDropShadow dx="0" dy="2" stdDeviation="3" flood-opacity="0.1"/>
        </filter>
    </defs>
</svg>
