<svg viewBox="0 0 660 900" xmlns="http://www.w3.org/2000/svg"><rect width="660" height="900" fill="#ffffff"/><text x="24" y="45" font-family="Arial" font-size="18" font-weight="bold" fill="#1e293b">Quick Quality Check</text><text x="24" y="75" font-family="Arial" font-size="15" fill="#64748b">What's your first impression of this proposal?</text><rect x="24" y="100" width="612" height="60" rx="8" fill="#f0fdf4" stroke="#22c55e" stroke-width="2"/><text x="48" y="136" font-family="Arial" font-size="15" fill="#166534">✨ This proposal seems promising</text><rect x="24" y="170" width="612" height="60" rx="8" fill="#fef2f2" stroke="#ef4444" stroke-width="2"/><text x="48" y="206" font-family="Arial" font-size="15" fill="#991b1b">⚠️ This proposal seems low quality</text><rect x="24" y="250" width="612" height="120" rx="8" fill="#ffffff" stroke="#e2e8f0" stroke-width="2"/><text x="48" y="280" font-family="Arial" font-size="14" font-weight="bold" fill="#1e293b">Select issues:</text><rect x="48" y="295" width="100" height="32" rx="16" fill="#f1f5f9"/><text x="98" y="316" font-family="Arial" font-size="13" fill="#64748b" text-anchor="middle">Incomplete</text><rect x="158" y="295" width="120" height="32" rx="16" fill="#f1f5f9"/><text x="218" y="316" font-family="Arial" font-size="13" fill="#64748b" text-anchor="middle">Unclear Scope</text><rect x="288" y="295" width="100" height="32" rx="16" fill="#f1f5f9"/><text x="338" y="316" font-family="Arial" font-size="13" fill="#64748b" text-anchor="middle">Duplicate</text><rect x="398" y="295" width="140" height="32" rx="16" fill="#f1f5f9"/><text x="468" y="316" font-family="Arial" font-size="13" fill="#64748b" text-anchor="middle">Poor Formatting</text><text x="48" y="340" font-family="Arial" font-size="14" font-weight="bold" fill="#1e293b">Brief comment (optional):</text><rect x="48" y="355" width="564" height="80" rx="8" fill="#f8fafc"/><rect x="48" y="450" width="270" height="50" rx="25" fill="#ef4444"/><text x="123" y="482" font-family="Arial" font-size="15" fill="#ffffff">Submit & Next Proposal</text><rect x="338" y="450" width="270" height="50" rx="25" fill="#f1f5f9"/><text x="403" y="482" font-family="Arial" font-size="15" fill="#64748b">Continue to Full Review</text><text x="24" y="580" font-family="Arial" font-size="18" font-weight="bold" fill="#1e293b">Rate Your Expertise</text><text x="24" y="610" font-family="Arial" font-size="15" fill="#64748b">How familiar are you with the subject matter of this proposal?</text><rect x="24" y="640" width="612" height="160" rx="8" fill="#f8fafc"/><text x="48" y="680" font-family="Arial" font-size="14" fill="#64748b">Not familiar</text><text x="528" y="680" font-family="Arial" font-size="14" fill="#64748b">Expert</text><rect x="48" y="720" width="544" height="4" fill="#e2e8f0"/><circle cx="48" cy="722" r="8" fill="#4338ca"/><circle cx="184" cy="722" r="8" fill="#4338ca"/><circle cx="320" cy="722" r="8" fill="#4338ca"/><circle cx="456" cy="722" r="8" fill="#4338ca"/><circle cx="592" cy="722" r="8" fill="#4338ca"/><text x="48" y="750" font-family="Arial" font-size="12" fill="#64748b" text-anchor="middle">1</text><text x="184" y="750" font-family="Arial" font-size="12" fill="#64748b" text-anchor="middle">2</text><text x="320" y="750" font-family="Arial" font-size="12" fill="#64748b" text-anchor="middle">3</text><text x="456" y="750" font-family="Arial" font-size="12" fill="#64748b" text-anchor="middle">4</text><text x="592" y="750" font-family="Arial" font-size="12" fill="#64748b" text-anchor="middle">5</text><text x="48" y="780" font-family="Arial" font-size="14" fill="#64748b">Selected: 3 - Intermediate knowledge</text><rect x="24" y="820" width="290" height="50" rx="25" fill="#4338ca"/><text x="129" y="852" font-family="Arial" font-size="16" fill="#ffffff">Start Review</text><rect x="334" y="820" width="140" height="50" rx="25" fill="#f1f5f9"/><text x="359" y="852" font-family="Arial" font-size="16" fill="#64748b">Review Later</text><rect x="494" y="820" width="122" height="50" rx="25" fill="#f1f5f9"/><text x="534" y="852" font-family="Arial" font-size="16" fill="#64748b">Skip</text></svg>
