<svg viewBox="0 0 660 700" xmlns="http://www.w3.org/2000/svg"><rect width="660" height="700" fill="#ffffff"/><text x="24" y="45" font-family="Arial" font-size="18" font-weight="bold" fill="#1e293b">Quick Quality Check</text><text x="24" y="75" font-family="Arial" font-size="15" fill="#64748b">What's your first impression of this proposal?</text><rect x="24" y="100" width="612" height="60" rx="8" fill="#f0fdf4" stroke="#22c55e" stroke-width="2"/><text x="48" y="136" font-family="Arial" font-size="15" fill="#166534">✨ This proposal seems promising</text><rect x="24" y="170" width="612" height="60" rx="8" fill="#fef2f2" stroke="#ef4444" stroke-width="2"/><text x="48" y="206" font-family="Arial" font-size="15" fill="#991b1b">⚠️ This proposal seems low quality</text><rect x="24" y="250" width="612" height="120" rx="8" fill="#ffffff" stroke="#e2e8f0" stroke-width="2"/><text x="48" y="280" font-family="Arial" font-size="14" font-weight="bold" fill="#1e293b">Select issues:</text><rect x="48" y="295" width="100" height="32" rx="16" fill="#f1f5f9"/><text x="98" y="316" font-family="Arial" font-size="13" fill="#64748b" text-anchor="middle">Incomplete</text><rect x="158" y="295" width="120" height="32" rx="16" fill="#f1f5f9"/><text x="218" y="316" font-family="Arial" font-size="13" fill="#64748b" text-anchor="middle">Unclear Scope</text><text x="24" y="420" font-family="Arial" font-size="18" font-weight="bold" fill="#1e293b">Rate Your Expertise</text><text x="24" y="450" font-family="Arial" font-size="15" fill="#64748b">How familiar are you with the subject matter of this proposal?</text><rect x="24" y="480" width="612" height="160" rx="8" fill="#f8fafc"/><text x="48" y="520" font-family="Arial" font-size="14" fill="#64748b">Not familiar</text><text x="528" y="520" font-family="Arial" font-size="14" fill="#64748b">Expert</text><rect x="48" y="560" width="544" height="4" fill="#e2e8f0"/><circle cx="48" cy="562" r="8" fill="#4338ca"/><circle cx="184" cy="562" r="8" fill="#4338ca"/><circle cx="320" cy="562" r="8" fill="#4338ca"/><circle cx="456" cy="562" r="8" fill="#4338ca"/><circle cx="592" cy="562" r="8" fill="#4338ca"/><text x="48" y="590" font-family="Arial" font-size="12" fill="#64748b" text-anchor="middle">1</text><text x="184" y="590" font-family="Arial" font-size="12" fill="#64748b" text-anchor="middle">2</text><text x="320" y="590" font-family="Arial" font-size="12" fill="#64748b" text-anchor="middle">3</text><text x="456" y="590" font-family="Arial" font-size="12" fill="#64748b" text-anchor="middle">4</text><text x="592" y="590" font-family="Arial" font-size="12" fill="#64748b" text-anchor="middle">5</text><text x="48" y="620" font-family="Arial" font-size="14" fill="#64748b">Selected: 3 - Intermediate knowledge</text></svg>
