<?xml version="1.0" encoding="utf-8"?>
<svg version="1.1" xmlns="http://www.w3.org/2000/svg" x="0px" y="0px" viewBox="0 0 1100 800" xml:space="preserve">
<style type="text/css">
    .st0{fill:#FFBA01;}
    .st1{fill:#EAA307;}
</style>
<g>
    <g>
        <path class="st0" d="M550,200v130.6c0,127.2-28.7,303.8-254.8,438.1c-30.6,18.2-69.1,18.2-99.7,0
            c-226.1-134.3-254.8-310.9-254.8-438.1V200h-130.6c0,42.1,0,88.6,0,130.6c0,202.2,71.1,452.5,435.2,609.3
            c364.1-156.9,435.2-407.1,435.2-609.3c0-42,0-88.5,0-130.6H550z"/>
        <path class="st0" d="M550,69.4H276.2H246h-30.8H-58.7V200h239.4v483.4c0,22.6,11.8,43.6,31.1,55.3
            c0.2,0.1,0.4,0.3,0.7,0.4c20.6,12.5,46.5,12.5,67.1,0c0.2-0.1,0.4-0.3,0.7-0.4c19.3-11.7,31.1-32.7,31.1-55.3V200h239.4V69.4z
            "/>
        <path class="st1" d="M180.1,200l-239.4,130.6l0-130.6H180.1z M310.7,200l239.4,130.6l0-130.6H310.7z"/>
    </g>
</g>
</svg>